# xmcd
#
# Track frame offsets:
#   151
#   16437
#   30831
#   43723
#   58460
#   72623
#   88433
#   101708
#   118025
#   134348
#
# Disc length: 1985 seconds
#
# Revision: 0
# Processed by: cddbd v1.4PL0 Copyright (c) Steve Scherf et al.
# Submitted via: uFREEDB 1.6.0
#
DISCID=9407bf0a
DTITLE=Cheo Feliciano - Coleccion Romantica
DYEAR=2000
DGENRE=Blues
TTITLE0=Cosas del alma
TTITLE1=Inolvidable
TTITLE2=Llegaste tarde
TTITLE3=Si fe
TTITLE4=me dicen que te vas
TTITLE5=Ausencia
TTITLE6=Irremediablemente solo
TTITLE7=Mi propio yo
TTITLE8=Nosotros
TTITLE9=Cuando estoy contigo
EXTD=
EXTT0=
EXTT1=
EXTT2=
EXTT3=
EXTT4=
EXTT5=
EXTT6=
EXTT7=
EXTT8=
EXTT9=
PLAYORDER=
